<?xml version="1.0" encoding="utf-8"?>
<!-- Generator: Adobe Illustrator 18.1.1, SVG Export Plug-In . SVG Version: 6.00 Build 0)  -->
<svg version="1.1" id="Layer_1" xmlns="http://www.w3.org/2000/svg" xmlns:xlink="http://www.w3.org/1999/xlink" x="0px" y="0px"
	 viewBox="0 0 814.4 197.5" enable-background="new 0 0 814.4 197.5" xml:space="preserve">
<g>
	<rect x="171.4" y="122.3" fill="#7FABA3" width="112.2" height="54.4"/>
	<text transform="matrix(1 0 0 1 203.6809 155.5144)" fill="#FFFFFF" font-family="'MyriadPro-Regular'" font-size="17.4157">Action</text>
</g>
<g>
	<rect x="7.7" y="122.3" fill="#ED1A5E" width="112.2" height="54.4"/>
	<text transform="matrix(1 0 0 1 20.4054 155.5144)" fill="#FFFFFF" font-family="'MyriadPro-Regular'" font-size="17.4157">External API</text>
</g>
<g>
	<rect x="335" y="122.3" fill="#F15754" width="112.2" height="54.4"/>
	<text transform="matrix(1 0 0 1 351.8395 155.5144)" fill="#FFFFFF" font-family="'MyriadPro-Regular'" font-size="17.4157">Dispatcher</text>
</g>
<g>
	<rect x="498.7" y="15.8" fill="#7FABA3" width="112.2" height="54.4"/>
	<text transform="matrix(1 0 0 1 530.9971 49.0059)" fill="#FFFFFF" font-family="'MyriadPro-Regular'" font-size="17.4157">Action</text>
	<g>
		<rect x="498.7" y="122.3" fill="#B9917E" width="112.2" height="54.4"/>
		<text transform="matrix(1 0 0 1 535.5938 155.5144)" fill="#FFFFFF" font-family="'MyriadPro-Regular'" font-size="17.4157">Store</text>
	</g>
</g>
<g>
	<rect x="662.3" y="122.3" fill="#280A39" width="112.2" height="54.4"/>
	<text transform="matrix(1 0 0 1 700.7501 155.5144)" fill="#FFFFFF" font-family="'MyriadPro-Regular'" font-size="17.4157">View</text>
</g>
<g>
	<g>
		<polyline fill="none" stroke="#000000" stroke-miterlimit="10" points="718.4,122.3 718.4,43 618,43 		"/>
		<g>
			<polygon points="619.5,38 610.9,43 619.5,48 			"/>
		</g>
	</g>
</g>
<g>
	<g>
		<polyline fill="none" stroke="#000000" stroke-miterlimit="10" points="498.7,43 391.1,43 391.1,115.2 		"/>
		<g>
			<polygon points="386.1,113.7 391.1,122.3 396.1,113.7 			"/>
		</g>
	</g>
</g>
<g>
	<g>
		<line fill="none" stroke="#000000" stroke-miterlimit="10" x1="119.9" y1="149.5" x2="164.2" y2="149.5"/>
		<g>
			<polygon points="162.7,154.5 171.4,149.5 162.7,144.6 			"/>
		</g>
	</g>
</g>
<g>
	<g>
		<line fill="none" stroke="#000000" stroke-miterlimit="10" x1="283.5" y1="149.5" x2="327.8" y2="149.5"/>
		<g>
			<polygon points="326.4,154.5 335,149.5 326.4,144.6 			"/>
		</g>
	</g>
</g>
<g>
	<g>
		<line fill="none" stroke="#000000" stroke-miterlimit="10" x1="447.2" y1="149.5" x2="491.5" y2="149.5"/>
		<g>
			<polygon points="490,154.5 498.7,149.5 490,144.6 			"/>
		</g>
	</g>
</g>
<g>
	<g>
		<line fill="none" stroke="#000000" stroke-miterlimit="10" x1="610.9" y1="149.5" x2="655.2" y2="149.5"/>
		<g>
			<polygon points="653.7,154.5 662.3,149.5 653.7,144.6 			"/>
		</g>
	</g>
</g>
</svg>
