<?xml version="1.0" encoding="utf-8"?>
<!-- Generator: Adobe Illustrator 25.0.1, SVG Export Plug-In . SVG Version: 6.00 Build 0)  -->
<svg version="1.1" id="Layer_1" xmlns="http://www.w3.org/2000/svg" xmlns:xlink="http://www.w3.org/1999/xlink" x="0px" y="0px"
	 viewBox="0 0 409.6 103.7" style="enable-background:new 0 0 409.6 103.7;" xml:space="preserve">
<style type="text/css">
	.st0{fill:#FFFFFF;}
	.st1{fill:#00ADFF;}
	.st2{fill:#F05245;}
	.st3{fill:#1CEBCF;}
	.st4{fill:#FFE300;}
	.st5{opacity:0.87;fill:#FFFFFF;enable-background:new    ;}
</style>
<path class="st0" d="M164.7,36.2l-4.9,5.2c-3.4-3.3-7-5.2-11.9-5.2c-8.5,0-14.9,6.7-14.9,16.1s6.4,16.1,14.9,16.1
	c4.6,0,9-1.9,12.2-5.2l4.6,5.2c-4,4.6-9.7,7-16.4,7c-14,0-23.1-10-23.1-23.1c0-13.4,9.1-23.4,23.1-23.4
	C154.6,28.8,160.6,31.5,164.7,36.2L164.7,36.2z"/>
<path class="st0" d="M219.4,52.3c0,13.1-10,23.1-23.4,23.1c-13.7,0-23.7-10-23.7-23.1c0-13.4,10-23.4,23.7-23.4
	C209.4,28.9,219.4,38.9,219.4,52.3z M180.2,52.3c0,9.4,6.7,16.1,15.8,16.1c8.8,0,15.5-6.7,15.5-16.1s-6.7-16.1-15.5-16.1
	C186.9,36.2,180.2,42.9,180.2,52.3L180.2,52.3z"/>
<polygon class="st0" points="252.3,74.5 243.1,74.5 224.3,30.1 232.8,30.1 247.7,66.9 262.6,30.1 270.8,30.1 252.3,74.5 "/>
<path class="st0" d="M318.8,52v3h-35c0.9,9.1,7.3,13.7,14.9,13.7c5.1,0.1,10.1-1.8,14-5.2l4,5.2c-5.5,5.2-11.6,6.8-18.3,6.8
	c-13.4,0-22.8-9.1-22.8-23.1c0-13.7,9.4-23.4,22.2-23.4C310,28.9,318.8,38.6,318.8,52L318.8,52z M283.9,48.6h27.4
	c-0.9-7.6-6.1-12.8-13.4-12.8C290,35.9,285.1,41,283.9,48.6L283.9,48.6z"/>
<path class="st0" d="M376,52.3c0,13.1-10,23.1-23.4,23.1c-13.7,0-23.7-10-23.7-23.1c0-13.4,10-23.4,23.7-23.4
	C365.9,28.9,376,38.9,376,52.3z M336.8,52.3c0,9.4,6.7,16.1,15.8,16.1c8.8,0,15.5-6.7,15.5-16.1s-6.7-16.1-15.5-16.1
	C343.4,36.2,336.8,42.9,336.8,52.3z"/>
<path class="st1" d="M88.1,14.9C79.5,6.4,68.3,1.2,56.2,0c-0.9,0-1.6,0.8-1.6,1.8c0,0.4,0.1,0.7,0.4,1l18.8,18.5
	c0,0.3,0,0.3-0.3,0.3c-5.2-3.8-11.3-6.1-17.6-6.7c-0.6-0.1-1.1,0.3-1.2,0.9c0,0.3,0.1,0.6,0.3,0.9l12.8,12.8c0,0,0,0.3-0.3,0
	c-3.5-2.2-7.4-3.6-11.6-4c-0.6,0-0.9,0.6-0.6,1.2l21.6,21.6c0.6,0.6,1.5,0,1.2-0.6c-0.3-4.1-1.7-8.1-4-11.6c-0.3,0,0-0.3,0,0
	l12.5,12.2c0.6,0.6,1.8,0,1.8-0.9c-0.7-6.4-3-12.6-6.7-17.9c-0.3,0,0-0.3,0,0L100.6,48c0.5,0.6,1.3,0.7,1.9,0.3
	c0.5-0.3,0.7-0.9,0.5-1.5C101.9,34.7,96.6,23.4,88.1,14.9L88.1,14.9z"/>
<path class="st2" d="M14.9,14.9C23.6,6.5,34.8,1.2,46.8,0c0.9,0,1.6,0.6,1.7,1.5c0,0.4-0.1,0.9-0.5,1.2L29.5,21.3
	c-0.3,0.3,0,0.3,0,0.3c5.3-3.8,11.5-6.1,17.9-6.7c0.9,0,1.5,1.2,0.9,1.8L35.6,29.5c-0.3,0,0,0.3,0,0c3.5-2.2,7.4-3.5,11.6-4
	c0.6,0,1.2,0.6,0.6,1.2L26.1,48.3c-0.6,0.6-1.2,0-1.2-0.6c0.4-4.1,1.9-8.1,4.3-11.6c0,0-0.3-0.3-0.3,0L16.7,48.3
	c-0.9,0.6-2.1,0-1.8-0.9c0.6-6.5,2.9-12.7,6.7-17.9c0,0-0.3-0.3-0.3,0L2.7,48C1.5,49.2,0,48.3,0,46.8C1.2,34.8,6.5,23.6,14.9,14.9z"
	/>
<path class="st3" d="M14.9,88.8c8.5,8.6,19.8,13.9,31.9,14.9c0.8,0.1,1.5-0.4,1.6-1.2c0.1-0.5-0.1-0.9-0.4-1.3L29.5,82.4
	c-0.3,0,0-0.3,0,0c5.3,3.8,11.5,6.1,17.9,6.6c0.9,0,1.5-1.2,0.9-1.8L35.6,74.5c-0.3-0.3,0-0.3,0-0.3C39,76.5,43,78,47.1,78.4
	c0.6,0,1.2-0.9,0.6-1.2L26.1,55.6c-0.6-0.6-1.2-0.3-1.2,0.6c0.4,4.1,1.9,8.1,4.3,11.6c0,0-0.3,0.3-0.3,0L16.7,55.6
	c-0.9-0.6-2.1-0.3-1.8,0.9c0.6,6.4,2.9,12.5,6.7,17.6c0,0.2-0.1,0.3-0.3,0.3c0,0,0,0,0,0L2.7,55.6C2,55,0.9,55.2,0.4,55.9
	c-0.2,0.3-0.3,0.6-0.4,1C1.1,68.9,6.4,80.2,14.9,88.8z"/>
<path class="st4" d="M88.1,88.8c-8.5,8.7-19.8,14-31.9,14.9c-1.2,0.3-2.1-1.5-1.2-2.4l18.8-18.8c0,0,0-0.3-0.3,0
	c-5.2,3.8-11.3,6.1-17.6,6.7c-0.6,0.1-1.1-0.4-1.2-1c0-0.3,0.1-0.6,0.3-0.9l12.8-12.8c0-0.3,0-0.3-0.3-0.3
	c-3.4,2.4-7.4,3.9-11.5,4.2c-0.5-0.1-0.8-0.5-0.7-0.9c0-0.1,0-0.2,0.1-0.3l21.6-21.6c0.6-0.6,1.5-0.3,1.2,0.6
	c-0.3,4.1-1.7,8.1-4,11.6c-0.3,0,0,0.3,0,0l12.5-12.2c0.4-0.4,1.1-0.4,1.5,0c0.2,0.2,0.3,0.6,0.3,0.9c-0.7,6.3-3,12.4-6.7,17.6
	c-0.3,0.3,0,0.3,0,0.3l18.8-18.8c0.9-0.9,2.7,0,2.4,1.2C102,68.9,96.7,80.2,88.1,88.8L88.1,88.8z"/>
<path class="st5" d="M390.8,31.9V43h-1.9V31.9h-3.5v-1.8h9v1.8H390.8z"/>
<path class="st5" d="M407.7,43v-8.6l-3,6.2h-1.4l-3-6.2V43h-2V30.2h2l3.7,8l3.7-8h1.9V43H407.7z"/>
</svg>
